<svg xmlns="http://www.w3.org/2000/svg" xmlns:xlink="http://www.w3.org/1999/xlink" width="1080" zoomAndPan="magnify" viewBox="0 0 810 809.999993" height="1080" preserveAspectRatio="xMidYMid meet" version="1.0"><defs><clipPath id="96255b2e8d"><path d="M 138 246 L 671.996094 246 L 671.996094 264 L 138 264 Z M 138 246 " clip-rule="nonzero"/></clipPath><clipPath id="8a3dbc6fa6"><path d="M 138 396 L 671.996094 396 L 671.996094 414 L 138 414 Z M 138 396 " clip-rule="nonzero"/></clipPath><clipPath id="c724f0a868"><path d="M 138 546 L 671.996094 546 L 671.996094 564 L 138 564 Z M 138 546 " clip-rule="nonzero"/></clipPath><clipPath id="22308aae6c"><path d="M 284 191.398438 L 412 191.398438 L 412 319 L 284 319 Z M 284 191.398438 " clip-rule="nonzero"/></clipPath><clipPath id="66af7611e1"><path d="M 204 491 L 332 491 L 332 618.898438 L 204 618.898438 Z M 204 491 " clip-rule="nonzero"/></clipPath></defs><g clip-path="url(#96255b2e8d)"><path fill="#000000" d="M 663.449219 263.269531 L 402.859375 263.269531 C 398.230469 263.269531 394.40625 259.441406 394.40625 254.808594 C 394.40625 250.179688 398.144531 246.347656 402.859375 246.347656 L 663.449219 246.347656 C 668.078125 246.347656 671.90625 250.179688 671.90625 254.808594 C 671.90625 259.441406 668.167969 263.269531 663.449219 263.269531 Z M 292.589844 263.269531 L 146.542969 263.269531 C 141.914062 263.269531 138.089844 259.441406 138.089844 254.808594 C 138.089844 250.179688 141.828125 246.347656 146.542969 246.347656 L 292.589844 246.347656 C 297.21875 246.347656 301.046875 250.179688 301.046875 254.808594 C 301.046875 259.441406 297.308594 263.269531 292.589844 263.269531 Z M 292.589844 263.269531 " fill-opacity="1" fill-rule="nonzero"/></g><g clip-path="url(#8a3dbc6fa6)"><path fill="#000000" d="M 663.449219 413.519531 L 579.167969 413.519531 C 574.539062 413.519531 570.710938 409.6875 570.710938 405.058594 C 570.710938 400.425781 574.449219 396.597656 579.167969 396.597656 L 663.449219 396.597656 C 668.078125 396.597656 671.90625 400.425781 671.90625 405.058594 C 671.90625 409.6875 668.167969 413.519531 663.449219 413.519531 Z M 468.898438 413.519531 L 146.542969 413.519531 C 141.914062 413.519531 138.089844 409.6875 138.089844 405.058594 C 138.089844 400.425781 141.828125 396.597656 146.542969 396.597656 L 468.988281 396.597656 C 473.613281 396.597656 477.441406 400.425781 477.441406 405.058594 C 477.441406 409.6875 473.703125 413.519531 468.988281 413.519531 Z M 468.898438 413.519531 " fill-opacity="1" fill-rule="nonzero"/></g><g clip-path="url(#c724f0a868)"><path fill="#000000" d="M 663.449219 563.679688 L 323.382812 563.679688 C 318.757812 563.679688 314.929688 559.847656 314.929688 555.21875 C 314.929688 550.585938 318.667969 546.757812 323.382812 546.757812 L 663.449219 546.757812 C 668.078125 546.757812 671.90625 550.585938 671.90625 555.21875 C 671.90625 559.847656 668.167969 563.679688 663.449219 563.679688 Z M 213.113281 563.679688 L 146.542969 563.679688 C 141.914062 563.679688 138.089844 559.847656 138.089844 555.21875 C 138.089844 550.585938 141.828125 546.757812 146.542969 546.757812 L 213.113281 546.757812 C 217.742188 546.757812 221.570312 550.585938 221.570312 555.21875 C 221.570312 559.847656 217.832031 563.679688 213.113281 563.679688 Z M 213.113281 563.679688 " fill-opacity="1" fill-rule="nonzero"/></g><g clip-path="url(#22308aae6c)"><path fill="#000000" d="M 347.59375 318.578125 C 312.617188 318.578125 284.136719 289.988281 284.136719 254.808594 C 284.136719 219.628906 312.617188 191.308594 347.59375 191.308594 C 382.570312 191.308594 411.316406 219.808594 411.316406 254.808594 C 411.316406 289.8125 382.746094 318.578125 347.59375 318.578125 Z M 347.59375 208.230469 C 321.960938 208.230469 301.046875 229.160156 301.046875 254.808594 C 301.046875 280.460938 321.960938 301.65625 347.59375 301.65625 C 373.222656 301.65625 394.40625 280.636719 394.40625 254.808594 C 394.40625 228.980469 373.402344 208.230469 347.59375 208.230469 Z M 347.59375 208.230469 " fill-opacity="1" fill-rule="nonzero"/></g><path fill="#000000" d="M 524.164062 468.738281 C 489.011719 468.738281 460.441406 440.148438 460.441406 404.96875 C 460.441406 369.789062 489.011719 341.46875 524.164062 341.46875 C 559.320312 341.46875 587.621094 369.96875 587.621094 404.96875 C 587.621094 439.96875 559.144531 468.738281 524.164062 468.738281 Z M 524.164062 358.390625 C 498.355469 358.390625 477.351562 379.320312 477.351562 404.96875 C 477.351562 430.617188 498.355469 451.816406 524.164062 451.816406 C 549.976562 451.816406 570.710938 430.796875 570.710938 404.96875 C 570.710938 379.140625 549.796875 358.390625 524.164062 358.390625 Z M 524.164062 358.390625 " fill-opacity="1" fill-rule="nonzero"/><g clip-path="url(#66af7611e1)"><path fill="#000000" d="M 268.382812 618.984375 C 233.226562 618.984375 204.660156 590.398438 204.660156 555.21875 C 204.660156 520.039062 233.226562 491.714844 268.382812 491.714844 C 303.539062 491.714844 331.839844 520.214844 331.839844 555.21875 C 331.839844 590.21875 303.359375 618.984375 268.382812 618.984375 Z M 268.382812 508.636719 C 242.574219 508.636719 221.570312 529.566406 221.570312 555.21875 C 221.570312 580.867188 242.574219 602.0625 268.382812 602.0625 C 294.191406 602.0625 314.929688 581.046875 314.929688 555.21875 C 314.929688 529.390625 294.015625 508.636719 268.382812 508.636719 Z M 268.382812 508.636719 " fill-opacity="1" fill-rule="nonzero"/></g></svg>