<svg xmlns="http://www.w3.org/2000/svg" xmlns:xlink="http://www.w3.org/1999/xlink" width="1080" zoomAndPan="magnify" viewBox="0 0 810 809.999993" height="1080" preserveAspectRatio="xMidYMid meet" version="1.0"><defs><clipPath id="ab679469bd"><path d="M 169.289062 162 L 639 162 L 639 648 L 169.289062 648 Z M 169.289062 162 " clip-rule="nonzero"/></clipPath></defs><g clip-path="url(#ab679469bd)"><path fill="#000000" d="M 631.324219 609.019531 L 514.800781 497.15625 C 549.410156 460.15625 568.375 412.167969 568.375 361.261719 C 568.375 310.359375 547.609375 258.011719 509.96875 220.363281 C 472.296875 182.714844 422.21875 162 368.96875 162 C 315.71875 162 265.640625 182.714844 227.964844 220.363281 C 190.292969 258.011719 169.5625 308.050781 169.5625 361.261719 C 169.5625 414.476562 190.292969 464.515625 227.964844 502.164062 C 265.640625 539.8125 315.71875 560.527344 368.96875 560.527344 C 409.128906 560.527344 447.453125 548.746094 480.046875 526.804688 L 599.8125 641.765625 C 604.066406 645.839844 609.65625 648.109375 615.570312 648.109375 C 621.480469 648.109375 627.71875 645.550781 631.972656 641.117188 C 640.660156 632.078125 640.371094 617.664062 631.324219 608.984375 Z M 456.574219 492.078125 C 431.519531 508.863281 401.414062 518.664062 368.96875 518.664062 C 281.972656 518.664062 211.488281 448.195312 211.488281 361.300781 C 211.488281 274.402344 281.972656 203.898438 368.96875 203.898438 C 455.964844 203.898438 526.445312 274.367188 526.445312 361.261719 C 526.445312 404.351562 509.105469 443.40625 481.019531 471.828125 C 473.59375 479.359375 465.371094 486.167969 456.539062 492.078125 Z M 456.574219 492.078125 " fill-opacity="1" fill-rule="nonzero"/></g></svg>