<svg xmlns="http://www.w3.org/2000/svg" xmlns:xlink="http://www.w3.org/1999/xlink" width="1080" zoomAndPan="magnify" viewBox="0 0 810 809.999993" height="1080" preserveAspectRatio="xMidYMid meet" version="1.0"><defs><clipPath id="a0bfd861d3"><path d="M 155.765625 155.765625 L 654.515625 155.765625 L 654.515625 654.515625 L 155.765625 654.515625 Z M 155.765625 155.765625 " clip-rule="nonzero"/></clipPath></defs><g clip-path="url(#a0bfd861d3)"><path fill="#f1582c" d="M 405.058594 155.699219 C 542.785156 155.699219 654.417969 267.332031 654.417969 405.058594 C 654.417969 542.785156 542.785156 654.417969 405.058594 654.417969 C 267.332031 654.417969 155.699219 542.785156 155.699219 405.058594 C 155.699219 267.332031 267.332031 155.699219 405.058594 155.699219 Z M 404.863281 262.761719 C 442.804688 262.761719 446.199219 316.714844 450.015625 333.121094 L 360.757812 333.121094 C 360.757812 301.882812 374.933594 262.761719 404.863281 262.761719 Z M 436.644531 411.992188 L 445.214844 403.929688 C 434.414062 391.226562 422.5625 386.257812 406.601562 386.257812 C 380.179688 386.257812 369.363281 401.355469 369.363281 417.320312 C 369.363281 457.65625 433.546875 442.378906 433.546875 476.191406 C 433.546875 487.863281 423.761719 495.746094 405.910156 495.746094 C 391.160156 495.746094 380.851562 489.582031 372.96875 479.453125 L 363.871094 487.863281 C 375.195312 501.070312 388.75 506.398438 405.582031 506.398438 C 428.742188 506.398438 446.246094 495.074219 446.246094 473.964844 C 446.246094 433.101562 382.0625 445.984375 382.0625 415.433594 C 382.0625 404.617188 389.785156 396.898438 406.945312 396.898438 C 419.644531 396.898438 429.265625 402.207031 436.644531 411.992188 Z M 342.90625 333.121094 L 277.789062 333.121094 C 266.234375 333.121094 261.726562 341.136719 263.234375 353.972656 C 264.433594 364.082031 265.367188 377.410156 266.1875 387.785156 L 269.398438 438.132812 C 269.628906 442.722656 270.21875 441.953125 270.449219 446.542969 L 275.675781 523.214844 C 275.824219 544.425781 287.394531 564.15625 308.257812 564.15625 L 500.433594 564.15625 C 537.933594 564.15625 534.148438 517.871094 537.03125 491.53125 L 546.652344 354.101562 C 546.964844 348.234375 548.128906 345.351562 545.324219 339.679688 C 543.359375 335.679688 538.6875 333.121094 532.984375 333.121094 L 466.816406 333.121094 C 466.816406 297.425781 446.574219 245.960938 408.007812 245.960938 L 399.617188 245.960938 C 380.605469 245.960938 364.164062 262.597656 357.59375 275.347656 C 348.726562 292.589844 342.90625 312.0625 342.90625 333.121094 Z M 342.90625 333.121094 " fill-opacity="1" fill-rule="evenodd"/></g></svg>